<svg xmlns="http://www.w3.org/2000/svg" version="1.1" xmlns:xlink="http://www.w3.org/1999/xlink" xmlns:svgjs="http://svgjs.dev/svgjs" width="2000" height="1247" viewBox="0 0 2000 1247"><g transform="matrix(1,0,0,1,-1.2121212121212466,0.504858299595071)"><svg viewBox="0 0 396 247" data-background-color="#ffffff" preserveAspectRatio="xMidYMid meet" height="1247" width="2000" xmlns="http://www.w3.org/2000/svg" xmlns:xlink="http://www.w3.org/1999/xlink"><g id="tight-bounds" transform="matrix(1,0,0,1,0.2400000000000091,-0.09999999999999432)"><svg viewBox="0 0 395.52 247.2" height="247.2" width="395.52"><g><svg></svg></g><g><svg viewBox="0 0 395.52 247.2" height="247.2" width="395.52"><mask id="299e7e61-47a6-4df0-b2ac-f930f8f9d997"><rect width="395.52" height="247.2" fill="white"></rect><g transform="matrix(1,0,0,1,0,98.66130931317355)" id="clone"><svg viewBox="0 0 395.52 49.87738137365288" height="49.87738137365288" width="395.52"><g><svg viewBox="0 0 395.52 49.87738137365288" height="49.87738137365288" width="395.52"><g><svg viewBox="0 0 395.52000000000004 49.87738137365289" height="49.87738137365288" width="395.52"><g><svg viewBox="0 0 395.52000000000004 49.87738137365289" height="49.87738137365289" width="395.52000000000004"><g id="SvgjsG1910"><svg viewBox="0 0 395.52000000000004 49.87738137365289" height="49.87738137365289" width="395.52000000000004" id="SvgjsSvg1909"><g><svg viewBox="0 0 395.52000000000004 49.87738137365289" height="49.87738137365289" width="395.52000000000004"><g transform="matrix(1,0,0,1,0,0)"><svg width="395.52000000000004" viewBox="-0.5499999999999998 -36.5 311.82 40.2" height="49.87738137365289" data-palette-color="#dedede"><path d="M19.5-3.95L19.5-3.95 19.5-20.75 23.5-20.8 23.5-3.8Q23.5-2.85 23.08-2.27 22.65-1.7 21.75-1.15L21.75-1.15Q20.75-0.5 18.9 0.08 17.05 0.65 14.65 0.65L14.65 0.65Q11.05 0.65 8.3-0.6 5.55-1.85 4-4.53 2.45-7.2 2.45-11.45L2.45-11.45Q2.45-15.8 3.98-18.5 5.5-21.2 8.1-22.48 10.7-23.75 13.8-23.75L13.8-23.75Q15.75-23.75 17.5-23.2 19.25-22.65 20.25-21.85L20.25-21.85 20.25-18.15Q19.3-19.1 17.78-19.78 16.25-20.45 14.2-20.45L14.2-20.45Q12.15-20.45 10.4-19.58 8.65-18.7 7.6-16.7 6.55-14.7 6.55-11.35L6.55-11.35Q6.55-6.8 8.75-4.73 10.95-2.65 14.6-2.65L14.6-2.65Q16.35-2.65 17.48-3.03 18.6-3.4 19.5-3.95ZM23.5-30.95L23.5-19.8 19.5-19.75 19.5-32.4Q19.75-32.5 20.28-32.63 20.8-32.75 21.35-32.75L21.35-32.75Q22.45-32.75 22.98-32.33 23.5-31.9 23.5-30.95L23.5-30.95ZM52.55-11.55L52.55-11.55 52.55-11.55Q52.55-7.85 51.15-5.1 49.75-2.35 47.2-0.85 44.65 0.65 41.2 0.65L41.2 0.65Q37.75 0.65 35.17-0.85 32.6-2.35 31.2-5.1 29.8-7.85 29.8-11.55L29.8-11.55Q29.8-15.3 31.22-18.03 32.65-20.75 35.22-22.25 37.8-23.75 41.2-23.75L41.2-23.75Q44.6-23.75 47.15-22.25 49.7-20.75 51.12-18.03 52.55-15.3 52.55-11.55ZM41.2-20.45L41.2-20.45 41.2-20.45Q37.85-20.45 35.87-18.07 33.9-15.7 33.9-11.55L33.9-11.55Q33.9-7.35 35.82-5 37.75-2.65 41.2-2.65L41.2-2.65Q44.6-2.65 46.52-5.03 48.45-7.4 48.45-11.55L48.45-11.55Q48.45-15.7 46.52-18.07 44.6-20.45 41.2-20.45ZM77.4-16L77.4-16 77.4-10.25 73.4-10.25 73.4-15.7Q73.4-18.15 71.97-19.3 70.55-20.45 68.2-20.45L68.2-20.45Q66.65-20.45 65.2-19.95 63.75-19.45 62.75-18.8L62.75-18.8 62.75-10.25 58.75-10.25 58.75-18.6Q58.75-19.6 59.17-20.3 59.6-21 60.65-21.65L60.65-21.65Q62-22.5 64.07-23.13 66.15-23.75 68.25-23.75L68.25-23.75Q70.8-23.75 72.75-22.98 74.7-22.2 75.65-20.85L75.65-20.85Q75.95-20.55 76.15-20.3 76.34-20.05 76.55-19.65L76.55-19.65Q76.9-19.05 77.15-18.1 77.4-17.15 77.4-16ZM92.05-15.9L92.05-15.9 92.05-10.25 88.05-10.25 88.05-15.7Q88.05-18.15 86.65-19.3 85.25-20.45 82.9-20.45L82.9-20.45Q81.15-20.45 79.52-19.73 77.9-19 76.59-17.65L76.59-17.65 75-20.55Q76.3-21.85 78.4-22.8 80.5-23.75 83.2-23.75L83.2-23.75Q85.9-23.75 87.87-22.9 89.84-22.05 90.95-20.3 92.05-18.55 92.05-15.9ZM58.75-1.55L58.75-12.9 62.75-12.9 62.75-0.1Q62.5 0 62 0.13 61.5 0.25 60.9 0.25L60.9 0.25Q59.85 0.25 59.3-0.18 58.75-0.6 58.75-1.55L58.75-1.55ZM73.4-1.55L73.4-12.9 77.4-12.9 77.4-0.1Q77.15 0 76.62 0.13 76.09 0.25 75.55 0.25L75.55 0.25Q74.45 0.25 73.92-0.18 73.4-0.6 73.4-1.55L73.4-1.55ZM88.05-1.55L88.05-12.9 92.05-12.9 92.05-0.1Q91.8 0 91.27 0.13 90.75 0.25 90.2 0.25L90.2 0.25Q89.09 0.25 88.57-0.18 88.05-0.6 88.05-1.55L88.05-1.55ZM127.39-18.55L117.89-18.55 117.89-21.8 128.49-21.8Q128.64-21.6 128.79-21.18 128.94-20.75 128.94-20.2L128.94-20.2Q128.94-19.4 128.54-18.98 128.14-18.55 127.39-18.55L127.39-18.55ZM118.59-24.95L118.59-24.95 118.59-19.1 114.64-19.1 114.64-25.15Q114.64-28.1 115.72-29.93 116.79-31.75 118.82-32.63 120.84-33.5 123.64-33.5L123.64-33.5Q126.49-33.5 128.12-32.75 129.74-32 129.74-30.9L129.74-30.9Q129.74-30.35 129.52-29.9 129.29-29.45 128.89-29.05L128.89-29.05Q127.99-29.55 126.64-29.88 125.29-30.2 124.04-30.2L124.04-30.2Q120.99-30.2 119.79-28.95 118.59-27.7 118.59-24.95ZM114.64-1.55L114.64-21.3 118.64-21.3 118.64-0.1Q118.39 0 117.89 0.13 117.39 0.25 116.79 0.25L116.79 0.25Q115.74 0.25 115.19-0.18 114.64-0.6 114.64-1.55L114.64-1.55ZM152.74-11.35L135.94-9 135.74-12.15 150.84-14.2Q150.64-16.95 148.94-18.73 147.24-20.5 144.24-20.5L144.24-20.5Q141.14-20.5 139.11-18.28 137.09-16.05 137.09-11.9L137.09-11.9 137.09-10.8Q137.44-6.8 139.71-4.73 141.99-2.65 145.94-2.65L145.94-2.65Q148.04-2.65 149.74-3.35 151.44-4.05 152.44-4.85L152.44-4.85Q152.99-4.5 153.31-4.03 153.64-3.55 153.64-2.95L153.64-2.95Q153.64-2 152.56-1.18 151.49-0.35 149.71 0.15 147.94 0.65 145.74 0.65L145.74 0.65Q141.89 0.65 139.06-0.75 136.24-2.15 134.71-4.93 133.19-7.7 133.19-11.7L133.19-11.7Q133.19-14.55 134.01-16.78 134.84-19 136.31-20.55 137.79-22.1 139.84-22.93 141.89-23.75 144.29-23.75L144.29-23.75Q147.34-23.75 149.66-22.45 151.99-21.15 153.31-18.82 154.64-16.5 154.64-13.5L154.64-13.5Q154.64-12.4 154.14-11.93 153.64-11.45 152.74-11.35L152.74-11.35ZM164.44-18.8L164.44-18.8 164.44-10.9 160.44-10.9 160.44-18.5Q160.44-19.65 160.86-20.33 161.28-21 162.28-21.65L162.28-21.65Q163.59-22.5 165.84-23.13 168.09-23.75 170.84-23.75L170.84-23.75Q174.84-23.75 174.84-21.75L174.84-21.75Q174.84-21.25 174.69-20.83 174.53-20.4 174.28-20.1L174.28-20.1Q173.78-20.2 172.99-20.3 172.19-20.4 171.38-20.4L171.38-20.4Q169.09-20.4 167.34-19.93 165.59-19.45 164.44-18.8ZM160.44-1.55L160.44-13.2 164.44-12.6 164.44-0.1Q164.19 0 163.69 0.13 163.19 0.25 162.59 0.25L162.59 0.25Q161.53 0.25 160.99-0.18 160.44-0.6 160.44-1.55L160.44-1.55ZM199.53-15.25L199.53-15.25 199.53-10.15 195.53-10.15 195.53-15.05Q195.53-17.85 193.96-19.15 192.38-20.45 189.73-20.45L189.73-20.45Q187.73-20.45 186.18-19.95 184.63-19.45 183.53-18.8L183.53-18.8 183.53-10.15 179.53-10.15 179.53-18.6Q179.53-19.65 179.96-20.33 180.38-21 181.43-21.65L181.43-21.65Q182.73-22.4 184.88-23.08 187.03-23.75 189.73-23.75L189.73-23.75Q194.28-23.75 196.91-21.68 199.53-19.6 199.53-15.25ZM179.53-1.55L179.53-12.9 183.53-12.9 183.53-0.1Q183.28 0 182.78 0.13 182.28 0.25 181.68 0.25L181.68 0.25Q180.63 0.25 180.08-0.18 179.53-0.6 179.53-1.55L179.53-1.55ZM195.53-1.55L195.53-12.9 199.53-12.9 199.53-0.1Q199.28 0 198.76 0.13 198.23 0.25 197.68 0.25L197.68 0.25Q196.58 0.25 196.06-0.18 195.53-0.6 195.53-1.55L195.53-1.55ZM215.28-2.6L215.28-2.6 215.28-2.6Q217.38-2.6 218.75-3.03 220.13-3.45 220.73-3.85L220.73-3.85 220.73-11.1 214.53-10.45Q211.93-10.25 210.68-9.3 209.43-8.35 209.43-6.55L209.43-6.55Q209.43-4.7 210.91-3.65 212.38-2.6 215.28-2.6ZM215.23-23.75L215.23-23.75 215.23-23.75Q219.58-23.75 222.13-21.8 224.68-19.85 224.68-15.65L224.68-15.65 224.68-3.8Q224.68-2.7 224.25-2.13 223.83-1.55 222.98-1.05L222.98-1.05Q221.78-0.4 219.78 0.15 217.78 0.7 215.28 0.7L215.28 0.7Q210.58 0.7 208-1.15 205.43-3 205.43-6.5L205.43-6.5Q205.43-9.75 207.6-11.48 209.78-13.2 213.63-13.55L213.63-13.55 220.73-14.25 220.73-15.65Q220.73-18.15 219.23-19.3 217.73-20.45 215.18-20.45L215.18-20.45Q213.13-20.45 211.25-19.85 209.38-19.25 207.93-18.5L207.93-18.5Q207.53-18.85 207.21-19.33 206.88-19.8 206.88-20.3L206.88-20.3Q206.88-21.6 208.33-22.3L208.33-22.3Q209.68-23 211.46-23.38 213.23-23.75 215.23-23.75ZM251.98-15.25L251.98-15.25 251.98-10.15 247.98-10.15 247.98-15.05Q247.98-17.85 246.4-19.15 244.83-20.45 242.18-20.45L242.18-20.45Q240.18-20.45 238.63-19.95 237.08-19.45 235.98-18.8L235.98-18.8 235.98-10.15 231.98-10.15 231.98-18.6Q231.98-19.65 232.4-20.33 232.83-21 233.88-21.65L233.88-21.65Q235.18-22.4 237.33-23.08 239.48-23.75 242.18-23.75L242.18-23.75Q246.73-23.75 249.35-21.68 251.98-19.6 251.98-15.25ZM231.98-1.55L231.98-12.9 235.98-12.9 235.98-0.1Q235.73 0 235.23 0.13 234.73 0.25 234.13 0.25L234.13 0.25Q233.08 0.25 232.53-0.18 231.98-0.6 231.98-1.55L231.98-1.55ZM247.98-1.55L247.98-12.9 251.98-12.9 251.98-0.1Q251.73 0 251.2 0.13 250.68 0.25 250.13 0.25L250.13 0.25Q249.03 0.25 248.5-0.18 247.98-0.6 247.98-1.55L247.98-1.55ZM275.23-3.95L275.23-3.95 275.23-20.75 279.23-20.8 279.23-3.8Q279.23-2.85 278.8-2.27 278.38-1.7 277.48-1.15L277.48-1.15Q276.48-0.5 274.63 0.08 272.78 0.65 270.38 0.65L270.38 0.65Q266.78 0.65 264.03-0.6 261.28-1.85 259.73-4.53 258.18-7.2 258.18-11.45L258.18-11.45Q258.18-15.8 259.7-18.5 261.23-21.2 263.83-22.48 266.43-23.75 269.53-23.75L269.53-23.75Q271.48-23.75 273.23-23.2 274.98-22.65 275.98-21.85L275.98-21.85 275.98-18.15Q275.03-19.1 273.5-19.78 271.98-20.45 269.93-20.45L269.93-20.45Q267.88-20.45 266.13-19.58 264.38-18.7 263.33-16.7 262.28-14.7 262.28-11.35L262.28-11.35Q262.28-6.8 264.48-4.73 266.68-2.65 270.33-2.65L270.33-2.65Q272.08-2.65 273.2-3.03 274.33-3.4 275.23-3.95ZM279.23-30.95L279.23-19.8 275.23-19.75 275.23-32.4Q275.48-32.5 276-32.63 276.53-32.75 277.08-32.75L277.08-32.75Q278.18-32.75 278.7-32.33 279.23-31.9 279.23-30.95L279.23-30.95ZM308.27-11.55L308.27-11.55 308.27-11.55Q308.27-7.85 306.87-5.1 305.47-2.35 302.92-0.85 300.37 0.65 296.92 0.65L296.92 0.65Q293.47 0.65 290.9-0.85 288.32-2.35 286.92-5.1 285.52-7.85 285.52-11.55L285.52-11.55Q285.52-15.3 286.95-18.03 288.37-20.75 290.95-22.25 293.52-23.75 296.92-23.75L296.92-23.75Q300.32-23.75 302.87-22.25 305.42-20.75 306.85-18.03 308.27-15.3 308.27-11.55ZM296.92-20.45L296.92-20.45 296.92-20.45Q293.57-20.45 291.6-18.07 289.62-15.7 289.62-11.55L289.62-11.55Q289.62-7.35 291.55-5 293.47-2.65 296.92-2.65L296.92-2.65Q300.32-2.65 302.25-5.03 304.17-7.4 304.17-11.55L304.17-11.55Q304.17-15.7 302.25-18.07 300.32-20.45 296.92-20.45Z" opacity="1" transform="matrix(1,0,0,1,0,0)" fill="black" class="wordmark-text-0" id="SvgjsPath1908" stroke-width="5" stroke="black" stroke-linejoin="round"></path></svg></g></svg></g></svg></g></svg></g></svg></g></svg></g></svg></g></mask><g mask="url(#299e7e61-47a6-4df0-b2ac-f930f8f9d997)"><g><path d="M162.658 120.944v0 0c0 31.623-7.59 55.581-22.769 71.873-15.179 16.343-37.568 24.514-67.167 24.514v0c-7.337 0-14.471-0.253-21.403-0.759-6.982-0.506-13.509-1.518-19.581-3.035v0-180.633c5.06-1.012 10.625-1.771 16.697-2.276 6.072-0.506 13.029-0.759 20.871-0.759v0c17.203 0 32.838 3.086 46.904 9.259 14.015 6.223 25.273 15.963 33.774 29.22 8.45 13.307 12.675 30.839 12.674 52.596zM194.155 120.944v0 0c0-26.058-5.237-47.688-15.71-64.891-10.524-17.203-25.071-30.181-43.641-38.935-18.62-8.703-40.326-13.054-65.118-13.054v0c-9.866 0-19.733 0.379-29.6 1.138-9.866 0.759-18.721 2.403-26.563 4.934v0c-4.048 1.265-7.134 2.96-9.259 5.085-2.176 2.176-3.264 5.287-3.264 9.335v0 195.052c0 8.349 5.313 14.167 15.938 17.456v0c9.107 2.783 18.797 4.503 29.068 5.161 10.221 0.607 19.252 0.911 27.095 0.911v0c24.54 0 45.866-4.427 63.98-13.282 18.063-8.855 32.104-22.339 42.122-40.452 9.968-18.063 14.951-40.883 14.952-68.458zM279.158 11.274v134.336l-30.738-0.38v-120.295c0-5.06 1.518-9.107 4.554-12.143 3.036-3.036 7.084-4.554 12.144-4.554v0c2.783 0 5.566 0.379 8.348 1.139 2.783 0.759 4.68 1.391 5.692 1.897zM369.474 139.538h-104.356v-26.184h112.705c0.759 1.265 1.518 2.96 2.277 5.085 0.759 2.176 1.138 4.528 1.138 7.058v0c0 4.048-1.012 7.387-3.036 10.019-2.024 2.682-4.933 4.022-8.728 4.022zM382.756 34.422h-117.638v-26.184h125.987c0.759 1.012 1.518 2.656 2.277 4.934 0.759 2.277 1.138 4.68 1.138 7.21v0c0 4.048-1.012 7.387-3.036 10.018-2.024 2.682-4.933 4.022-8.728 4.022zM248.42 227.198v-123.331h31.118v134.715c-1.265 0.253-3.213 0.708-5.844 1.366-2.682 0.607-5.414 0.911-8.197 0.911v0c-5.566 0-9.791-1.138-12.675-3.415-2.935-2.277-4.402-5.692-4.402-10.246z" fill="#000000" fill-rule="nonzero" stroke="none" stroke-width="1" stroke-linecap="butt" stroke-linejoin="miter" stroke-miterlimit="10" stroke-dasharray="" stroke-dashoffset="0" font-family="none" font-weight="none" font-size="none" text-anchor="none" style="mix-blend-mode: normal" data-fill-palette-color="tertiary"></path></g></g><g transform="matrix(1,0,0,1,0,98.66130931317355)"><svg viewBox="0 0 395.52 49.87738137365288" height="49.87738137365288" width="395.52"><g><svg viewBox="0 0 395.52 49.87738137365288" height="49.87738137365288" width="395.52"><g><svg viewBox="0 0 395.52000000000004 49.87738137365289" height="49.87738137365288" width="395.52"><g><svg viewBox="0 0 395.52000000000004 49.87738137365289" height="49.87738137365289" width="395.52000000000004"><g id="textblocktransform"><svg viewBox="0 0 395.52000000000004 49.87738137365289" height="49.87738137365289" width="395.52000000000004" id="textblock"><g><svg viewBox="0 0 395.52000000000004 49.87738137365289" height="49.87738137365289" width="395.52000000000004"><g transform="matrix(1,0,0,1,0,0)"><svg width="395.52000000000004" viewBox="-0.5499999999999998 -36.5 311.82 40.2" height="49.87738137365289" data-palette-color="#dedede"><path d="M19.5-3.95L19.5-3.95 19.5-20.75 23.5-20.8 23.5-3.8Q23.5-2.85 23.08-2.27 22.65-1.7 21.75-1.15L21.75-1.15Q20.75-0.5 18.9 0.08 17.05 0.65 14.65 0.65L14.65 0.65Q11.05 0.65 8.3-0.6 5.55-1.85 4-4.53 2.45-7.2 2.45-11.45L2.45-11.45Q2.45-15.8 3.98-18.5 5.5-21.2 8.1-22.48 10.7-23.75 13.8-23.75L13.8-23.75Q15.75-23.75 17.5-23.2 19.25-22.65 20.25-21.85L20.25-21.85 20.25-18.15Q19.3-19.1 17.78-19.78 16.25-20.45 14.2-20.45L14.2-20.45Q12.15-20.45 10.4-19.58 8.65-18.7 7.6-16.7 6.55-14.7 6.55-11.35L6.55-11.35Q6.55-6.8 8.75-4.73 10.95-2.65 14.6-2.65L14.6-2.65Q16.35-2.65 17.48-3.03 18.6-3.4 19.5-3.95ZM23.5-30.95L23.5-19.8 19.5-19.75 19.5-32.4Q19.75-32.5 20.28-32.63 20.8-32.75 21.35-32.75L21.35-32.75Q22.45-32.75 22.98-32.33 23.5-31.9 23.5-30.95L23.5-30.95ZM52.55-11.55L52.55-11.55 52.55-11.55Q52.55-7.85 51.15-5.1 49.75-2.35 47.2-0.85 44.65 0.65 41.2 0.65L41.2 0.65Q37.75 0.65 35.17-0.85 32.6-2.35 31.2-5.1 29.8-7.85 29.8-11.55L29.8-11.55Q29.8-15.3 31.22-18.03 32.65-20.75 35.22-22.25 37.8-23.75 41.2-23.75L41.2-23.75Q44.6-23.75 47.15-22.25 49.7-20.75 51.12-18.03 52.55-15.3 52.55-11.55ZM41.2-20.45L41.2-20.45 41.2-20.45Q37.85-20.45 35.87-18.07 33.9-15.7 33.9-11.55L33.9-11.55Q33.9-7.35 35.82-5 37.75-2.65 41.2-2.65L41.2-2.65Q44.6-2.65 46.52-5.03 48.45-7.4 48.45-11.55L48.45-11.55Q48.45-15.7 46.52-18.07 44.6-20.45 41.2-20.45ZM77.4-16L77.4-16 77.4-10.25 73.4-10.25 73.4-15.7Q73.4-18.15 71.97-19.3 70.55-20.45 68.2-20.45L68.2-20.45Q66.65-20.45 65.2-19.95 63.75-19.45 62.75-18.8L62.75-18.8 62.75-10.25 58.75-10.25 58.75-18.6Q58.75-19.6 59.17-20.3 59.6-21 60.65-21.65L60.65-21.65Q62-22.5 64.07-23.13 66.15-23.75 68.25-23.75L68.25-23.75Q70.8-23.75 72.75-22.98 74.7-22.2 75.65-20.85L75.65-20.85Q75.95-20.55 76.15-20.3 76.34-20.05 76.55-19.65L76.55-19.65Q76.9-19.05 77.15-18.1 77.4-17.15 77.4-16ZM92.05-15.9L92.05-15.9 92.05-10.25 88.05-10.25 88.05-15.7Q88.05-18.15 86.65-19.3 85.25-20.45 82.9-20.45L82.9-20.45Q81.15-20.45 79.52-19.73 77.9-19 76.59-17.65L76.59-17.65 75-20.55Q76.3-21.85 78.4-22.8 80.5-23.75 83.2-23.75L83.2-23.75Q85.9-23.75 87.87-22.9 89.84-22.05 90.95-20.3 92.05-18.55 92.05-15.9ZM58.75-1.55L58.75-12.9 62.75-12.9 62.75-0.1Q62.5 0 62 0.13 61.5 0.25 60.9 0.25L60.9 0.25Q59.85 0.25 59.3-0.18 58.75-0.6 58.75-1.55L58.75-1.55ZM73.4-1.55L73.4-12.9 77.4-12.9 77.4-0.1Q77.15 0 76.62 0.13 76.09 0.25 75.55 0.25L75.55 0.25Q74.45 0.25 73.92-0.18 73.4-0.6 73.4-1.55L73.4-1.55ZM88.05-1.55L88.05-12.9 92.05-12.9 92.05-0.1Q91.8 0 91.27 0.13 90.75 0.25 90.2 0.25L90.2 0.25Q89.09 0.25 88.57-0.18 88.05-0.6 88.05-1.55L88.05-1.55ZM127.39-18.55L117.89-18.55 117.89-21.8 128.49-21.8Q128.64-21.6 128.79-21.18 128.94-20.75 128.94-20.2L128.94-20.2Q128.94-19.4 128.54-18.98 128.14-18.55 127.39-18.55L127.39-18.55ZM118.59-24.95L118.59-24.95 118.59-19.1 114.64-19.1 114.64-25.15Q114.64-28.1 115.72-29.93 116.79-31.75 118.82-32.63 120.84-33.5 123.64-33.5L123.64-33.5Q126.49-33.5 128.12-32.75 129.74-32 129.74-30.9L129.74-30.9Q129.74-30.35 129.52-29.9 129.29-29.45 128.89-29.05L128.89-29.05Q127.99-29.55 126.64-29.88 125.29-30.2 124.04-30.2L124.04-30.2Q120.99-30.2 119.79-28.95 118.59-27.7 118.59-24.95ZM114.64-1.55L114.64-21.3 118.64-21.3 118.64-0.1Q118.39 0 117.89 0.13 117.39 0.25 116.79 0.25L116.79 0.25Q115.74 0.25 115.19-0.18 114.64-0.6 114.64-1.55L114.64-1.55ZM152.74-11.35L135.94-9 135.74-12.15 150.84-14.2Q150.64-16.95 148.94-18.73 147.24-20.5 144.24-20.5L144.24-20.5Q141.14-20.5 139.11-18.28 137.09-16.05 137.09-11.9L137.09-11.9 137.09-10.8Q137.44-6.8 139.71-4.73 141.99-2.65 145.94-2.65L145.94-2.65Q148.04-2.65 149.74-3.35 151.44-4.05 152.44-4.85L152.44-4.85Q152.99-4.5 153.31-4.03 153.64-3.55 153.64-2.95L153.64-2.95Q153.64-2 152.56-1.18 151.49-0.35 149.71 0.15 147.94 0.65 145.74 0.65L145.74 0.65Q141.89 0.65 139.06-0.75 136.24-2.15 134.71-4.93 133.19-7.7 133.19-11.7L133.19-11.7Q133.19-14.55 134.01-16.78 134.84-19 136.31-20.55 137.79-22.1 139.84-22.93 141.89-23.75 144.29-23.75L144.29-23.75Q147.34-23.75 149.66-22.45 151.99-21.15 153.31-18.82 154.64-16.5 154.64-13.5L154.64-13.5Q154.64-12.4 154.14-11.93 153.64-11.45 152.74-11.35L152.74-11.35ZM164.44-18.8L164.44-18.8 164.44-10.9 160.44-10.9 160.44-18.5Q160.44-19.65 160.86-20.33 161.28-21 162.28-21.65L162.28-21.65Q163.59-22.5 165.84-23.13 168.09-23.75 170.84-23.75L170.84-23.75Q174.84-23.75 174.84-21.75L174.84-21.75Q174.84-21.25 174.69-20.83 174.53-20.4 174.28-20.1L174.28-20.1Q173.78-20.2 172.99-20.3 172.19-20.4 171.38-20.4L171.38-20.4Q169.09-20.4 167.34-19.93 165.59-19.45 164.44-18.8ZM160.44-1.55L160.44-13.2 164.44-12.6 164.44-0.1Q164.19 0 163.69 0.13 163.19 0.25 162.59 0.25L162.59 0.25Q161.53 0.25 160.99-0.18 160.44-0.6 160.44-1.55L160.44-1.55ZM199.53-15.25L199.53-15.25 199.53-10.15 195.53-10.15 195.53-15.05Q195.53-17.85 193.96-19.15 192.38-20.45 189.73-20.45L189.73-20.45Q187.73-20.45 186.18-19.95 184.63-19.45 183.53-18.8L183.53-18.8 183.53-10.15 179.53-10.15 179.53-18.6Q179.53-19.65 179.96-20.33 180.38-21 181.43-21.65L181.43-21.65Q182.73-22.4 184.88-23.08 187.03-23.75 189.73-23.75L189.73-23.75Q194.28-23.75 196.91-21.68 199.53-19.6 199.53-15.25ZM179.53-1.55L179.53-12.9 183.53-12.9 183.53-0.1Q183.28 0 182.78 0.13 182.28 0.25 181.68 0.25L181.68 0.25Q180.63 0.25 180.08-0.18 179.53-0.6 179.53-1.55L179.53-1.55ZM195.53-1.55L195.53-12.9 199.53-12.9 199.53-0.1Q199.28 0 198.76 0.13 198.23 0.25 197.68 0.25L197.68 0.25Q196.58 0.25 196.06-0.18 195.53-0.6 195.53-1.55L195.53-1.55ZM215.28-2.6L215.28-2.6 215.28-2.6Q217.38-2.6 218.75-3.03 220.13-3.45 220.73-3.85L220.73-3.85 220.73-11.1 214.53-10.45Q211.93-10.25 210.68-9.3 209.43-8.35 209.43-6.55L209.43-6.55Q209.43-4.7 210.91-3.65 212.38-2.6 215.28-2.6ZM215.23-23.75L215.23-23.75 215.23-23.75Q219.58-23.75 222.13-21.8 224.68-19.85 224.68-15.65L224.68-15.65 224.68-3.8Q224.68-2.7 224.25-2.13 223.83-1.55 222.98-1.05L222.98-1.05Q221.78-0.4 219.78 0.15 217.78 0.7 215.28 0.7L215.28 0.7Q210.58 0.7 208-1.15 205.43-3 205.43-6.5L205.43-6.5Q205.43-9.75 207.6-11.48 209.78-13.2 213.63-13.55L213.63-13.55 220.73-14.25 220.73-15.65Q220.73-18.15 219.23-19.3 217.73-20.45 215.18-20.45L215.18-20.45Q213.13-20.45 211.25-19.85 209.38-19.25 207.93-18.5L207.93-18.5Q207.53-18.85 207.21-19.33 206.88-19.8 206.88-20.3L206.88-20.3Q206.88-21.6 208.33-22.3L208.33-22.3Q209.68-23 211.46-23.38 213.23-23.75 215.23-23.75ZM251.98-15.25L251.98-15.25 251.98-10.15 247.98-10.15 247.98-15.05Q247.98-17.85 246.4-19.15 244.83-20.45 242.18-20.45L242.18-20.45Q240.18-20.45 238.63-19.95 237.08-19.45 235.98-18.8L235.98-18.8 235.98-10.15 231.98-10.15 231.98-18.6Q231.98-19.65 232.4-20.33 232.83-21 233.88-21.65L233.88-21.65Q235.18-22.4 237.33-23.08 239.48-23.75 242.18-23.75L242.18-23.75Q246.73-23.75 249.35-21.68 251.98-19.6 251.98-15.25ZM231.98-1.55L231.98-12.9 235.98-12.9 235.98-0.1Q235.73 0 235.23 0.13 234.73 0.25 234.13 0.25L234.13 0.25Q233.08 0.25 232.53-0.18 231.98-0.6 231.98-1.55L231.98-1.55ZM247.98-1.55L247.98-12.9 251.98-12.9 251.98-0.1Q251.73 0 251.2 0.13 250.68 0.25 250.13 0.25L250.13 0.25Q249.03 0.25 248.5-0.18 247.98-0.6 247.98-1.55L247.98-1.55ZM275.23-3.95L275.23-3.95 275.23-20.75 279.23-20.8 279.23-3.8Q279.23-2.85 278.8-2.27 278.38-1.7 277.48-1.15L277.48-1.15Q276.48-0.5 274.63 0.08 272.78 0.65 270.38 0.65L270.38 0.65Q266.78 0.65 264.03-0.6 261.28-1.85 259.73-4.53 258.18-7.2 258.18-11.45L258.18-11.45Q258.18-15.8 259.7-18.5 261.23-21.2 263.83-22.48 266.43-23.75 269.53-23.75L269.53-23.75Q271.48-23.75 273.23-23.2 274.98-22.65 275.98-21.85L275.98-21.85 275.98-18.15Q275.03-19.1 273.5-19.78 271.98-20.45 269.93-20.45L269.93-20.45Q267.88-20.45 266.13-19.58 264.38-18.7 263.33-16.7 262.28-14.7 262.28-11.35L262.28-11.35Q262.28-6.8 264.48-4.73 266.68-2.65 270.33-2.65L270.33-2.65Q272.08-2.65 273.2-3.03 274.33-3.4 275.23-3.95ZM279.23-30.95L279.23-19.8 275.23-19.75 275.23-32.4Q275.48-32.5 276-32.63 276.53-32.75 277.08-32.75L277.08-32.75Q278.18-32.75 278.7-32.33 279.23-31.9 279.23-30.95L279.23-30.95ZM308.27-11.55L308.27-11.55 308.27-11.55Q308.27-7.85 306.87-5.1 305.47-2.35 302.92-0.85 300.37 0.65 296.92 0.65L296.92 0.65Q293.47 0.65 290.9-0.85 288.32-2.35 286.92-5.1 285.52-7.85 285.52-11.55L285.52-11.55Q285.52-15.3 286.95-18.03 288.37-20.75 290.95-22.25 293.52-23.75 296.92-23.75L296.92-23.75Q300.32-23.75 302.87-22.25 305.42-20.75 306.85-18.03 308.27-15.3 308.27-11.55ZM296.92-20.45L296.92-20.45 296.92-20.45Q293.57-20.45 291.6-18.07 289.62-15.7 289.62-11.55L289.62-11.55Q289.62-7.35 291.55-5 293.47-2.65 296.92-2.65L296.92-2.65Q300.32-2.65 302.25-5.03 304.17-7.4 304.17-11.55L304.17-11.55Q304.17-15.7 302.25-18.07 300.32-20.45 296.92-20.45Z" opacity="1" transform="matrix(1,0,0,1,0,0)" fill="#000000" class="wordmark-text-0" data-fill-palette-color="primary" id="text-0"></path></svg></g></svg></g></svg></g></svg></g></svg></g></svg></g></svg></g></svg></g><defs></defs></svg><rect width="395.52" height="247.2" fill="none" stroke="none" visibility="hidden"></rect></g></svg></g></svg>