<svg xmlns="http://www.w3.org/2000/svg" version="1.1" xmlns:xlink="http://www.w3.org/1999/xlink" xmlns:svgjs="http://svgjs.dev/svgjs" width="2000" height="1247" viewBox="0 0 2000 1247"><g transform="matrix(1,0,0,1,-1.2121212121212466,0.5048582995951847)"><svg viewBox="0 0 396 247" data-background-color="#c8c8c8" preserveAspectRatio="xMidYMid meet" height="1247" width="2000" xmlns="http://www.w3.org/2000/svg" xmlns:xlink="http://www.w3.org/1999/xlink"><g id="tight-bounds" transform="matrix(1,0,0,1,0.2400000000000091,-0.09999999999999432)"><svg viewBox="0 0 395.52 247.2" height="247.2" width="395.52"><g><svg></svg></g><g><svg viewBox="0 0 395.52 247.2" height="247.2" width="395.52"><g transform="matrix(1,0,0,1,75.54432,109.2921127770444)"><svg viewBox="0 0 244.43135999999998 28.615774445911203" height="28.615774445911203" width="244.43135999999998"><g><svg viewBox="0 0 244.43135999999998 28.615774445911203" height="28.615774445911203" width="244.43135999999998"><g><svg viewBox="0 0 244.43135999999998 28.615774445911203" height="28.615774445911203" width="244.43135999999998"><g><svg viewBox="0 0 244.43135999999998 28.615774445911203" height="28.615774445911203" width="244.43135999999998"><g id="textblocktransform"><svg viewBox="0 0 244.43135999999998 28.615774445911203" height="28.615774445911203" width="244.43135999999998" id="textblock"><g><svg viewBox="0 0 244.43135999999998 28.615774445911203" height="28.615774445911203" width="244.43135999999998"><g transform="matrix(1,0,0,1,0,0)"><svg width="244.43135999999998" viewBox="2.54 -39.87 351.35999999999996 41.14" height="28.615774445911203" data-palette-color="#000000"><path d="M20.9-8.33L21.41-13.89Q21.48-14.67 21.57-15.53 21.66-16.38 21.78-17.31L21.78-17.31Q21.22-18.77 20.19-19.69 19.17-20.61 17.63-20.61L17.63-20.61Q16.11-20.61 15.06-19.74 14.01-18.87 13.38-17.6 12.74-16.33 12.46-14.93 12.18-13.53 12.18-12.45L12.18-12.45Q12.18-11.13 12.34-9.84 12.5-8.54 12.85-7.5 13.21-6.45 13.79-5.8 14.38-5.15 15.26-5.15L15.26-5.15Q17.41-5.22 18.75-6.13 20.09-7.03 20.9-8.33L20.9-8.33ZM33.08-36.84L29.93-2.47Q29.93-2.42 29.92-2.36 29.91-2.29 29.91-2.25L29.91-2.25Q29.91-2.12 29.92-2.05 29.93-1.98 29.93-1.9L29.93-1.9Q29.93-1.68 29.77-1.55 29.61-1.42 28.96-1.25L28.96-1.25 22.41 0.88Q22.14 0.98 21.7 1.12 21.26 1.27 20.85 1.27L20.85 1.27Q20.51 1.27 20.25 1.1 20 0.93 20 0.46L20 0.46Q20 0.02 20.01-0.24 20.02-0.51 20.03-0.74 20.04-0.98 20.08-1.25 20.12-1.51 20.17-1.95L20.17-1.95Q18.33-0.49 16.39 0.39 14.45 1.27 12.3 1.27L12.3 1.27Q9.96 1.27 8.14 0.16 6.32-0.95 5.08-2.82 3.83-4.69 3.19-7.09 2.54-9.5 2.54-12.11L2.54-12.11Q2.54-15.5 3.65-18.3 4.76-21.09 6.67-23.08 8.57-25.07 11.11-26.16 13.65-27.25 16.5-27.25L16.5-27.25Q18.04-27.25 19.45-26.44 20.85-25.63 22.09-24.37L22.09-24.37Q22.17-25.56 22.27-26.97 22.36-28.37 22.46-29.82 22.56-31.27 22.66-32.69 22.75-34.11 22.83-35.28L22.83-35.28Q22.83-35.5 22.99-35.63 23.14-35.77 23.8-35.94L23.8-35.94 30.66-37.57Q30.93-37.62 31.37-37.79 31.81-37.96 32.23-37.96L32.23-37.96Q32.54-37.96 32.82-37.82 33.11-37.67 33.11-37.26L33.11-37.26Q33.11-37.21 33.09-37.05 33.08-36.89 33.08-36.84L33.08-36.84ZM48.8 1.27L48.8 1.27Q45.36 1.27 42.76 0.15 40.16-0.98 38.4-2.84 36.64-4.71 35.76-7.14 34.89-9.57 34.89-12.18L34.89-12.18Q34.89-14.79 35.74-17.15 36.59-19.51 38.13-21.37 39.67-23.24 41.82-24.5 43.97-25.76 46.56-26.2L46.56-26.2Q46.95-26.22 46.95-26.37L46.95-26.37Q46.95-26.64 46.88-26.87 46.82-27.1 46.82-27.27L46.82-27.27Q46.82-27.54 46.92-27.64 47.02-27.73 47.14-27.73L47.14-27.73Q51.8-27.73 55.08-26.67 58.35-25.61 60.4-23.78 62.45-21.95 63.38-19.46 64.3-16.97 64.3-14.11L64.3-14.11Q64.3-10.47 63.08-7.62 61.86-4.76 59.75-2.78 57.64-0.81 54.82 0.23 52 1.27 48.8 1.27ZM44.28-12.45L44.28-12.45Q44.28-11.13 44.57-9.84 44.85-8.54 45.49-7.5 46.14-6.45 47.19-5.8 48.24-5.15 49.8-5.15L49.8-5.15Q50.93-5.2 51.77-5.65 52.61-6.1 53.22-6.82 53.83-7.54 54.23-8.45 54.64-9.35 54.87-10.31 55.1-11.28 55.2-12.21 55.3-13.13 55.3-13.89L55.3-13.89Q55.3-15.16 54.92-16.38 54.54-17.6 53.81-18.53 53.07-19.46 51.99-20.03 50.9-20.61 49.48-20.61L49.48-20.61Q48.02-20.61 47.02-19.74 46.02-18.87 45.42-17.6 44.82-16.33 44.55-14.93 44.28-13.53 44.28-12.45ZM108.95-0.78L102.95 0.88Q102.68 0.95 102.24 1.11 101.8 1.27 101.39 1.27L101.39 1.27Q101.04 1.27 100.79 1.1 100.53 0.93 100.53 0.51L100.53 0.51 100.53 0.37Q100.7-1.42 100.83-2.53 100.95-3.64 101.02-4.32 101.09-5 101.14-5.36 101.19-5.71 101.24-6.02 101.29-6.32 101.33-6.69 101.36-7.06 101.44-7.73 101.51-8.4 101.62-9.51 101.73-10.62 101.9-12.43L101.9-12.43Q102-13.4 102.11-14.37 102.22-15.33 102.22-16.14L102.22-16.14Q102.22-17.16 102.11-18.01 102-18.85 101.72-19.45 101.44-20.04 100.95-20.39 100.46-20.73 99.7-20.73L99.7-20.73Q99.24-20.73 98.49-20.53 97.75-20.34 96.99-19.84 96.24-19.34 95.62-18.52 95.01-17.7 94.84-16.46L94.84-16.46 94.84-16.36Q94.55-13.57 94.32-11.54 94.09-9.5 93.92-8.03 93.75-6.57 93.64-5.59 93.53-4.61 93.45-3.94 93.38-3.27 93.34-2.83 93.31-2.39 93.31-2L93.31-2Q93.31-1.81 93.32-1.67 93.33-1.54 93.33-1.44L93.33-1.44Q93.33-1.25 93.15-1.11 92.96-0.98 92.33-0.78L92.33-0.78 86.59 0.88Q86.32 0.95 85.88 1.11 85.44 1.27 85.03 1.27L85.03 1.27Q84.69 1.27 84.43 1.1 84.17 0.93 84.17 0.51L84.17 0.51 84.17 0.37Q84.35-1.42 84.46-2.53 84.57-3.64 84.65-4.32 84.74-5 84.79-5.36 84.83-5.71 84.87-6.02 84.91-6.32 84.96-6.69 85-7.06 85.07-7.73 85.13-8.4 85.24-9.51 85.35-10.62 85.52-12.43L85.52-12.43Q85.62-13.4 85.72-14.37 85.83-15.33 85.83-16.14L85.83-16.14Q85.83-17.16 85.74-18.01 85.64-18.85 85.38-19.45 85.13-20.04 84.69-20.39 84.25-20.73 83.56-20.73L83.56-20.73Q83.08-20.73 82.23-20.48 81.39-20.24 80.55-19.68 79.71-19.12 79.06-18.2 78.41-17.29 78.32-15.94L78.32-15.94Q78.12-14.14 78-12.98 77.88-11.82 77.8-11.07 77.73-10.33 77.69-9.88 77.66-9.42 77.63-9.03L77.63-9.03Q77.61-8.94 77.56-8.48 77.51-8.03 77.45-7.41 77.39-6.79 77.33-6.07 77.27-5.35 77.22-4.72 77.17-4.1 77.13-3.65 77.09-3.2 77.09-3.1L77.09-3.1 77.09-2.66Q77.09-2.42 77.07-2.25 77.05-2.08 76.92-1.93 76.8-1.78 76.57-1.66 76.34-1.54 75.92-1.39L75.92-1.39 69.53 0.88Q69.26 0.98 68.82 1.12 68.38 1.27 67.96 1.27L67.96 1.27Q67.62 1.27 67.37 1.1 67.11 0.93 67.11 0.51L67.11 0.51 69.31-24.39Q69.38-25.2 69.49-25.5 69.6-25.81 70.04-25.9L70.04-25.9Q72.26-26.34 74.58-26.79 76.9-27.25 79.12-27.95L79.12-27.95Q79.32-27.95 79.35-27.89 79.39-27.83 79.39-27.71L79.39-27.71 79.07-24.15Q79.98-24.61 81.1-25.16 82.22-25.71 83.45-26.17 84.69-26.64 85.97-26.94 87.25-27.25 88.47-27.25L88.47-27.25Q90.16-27.25 91.58-26.48 93.01-25.71 93.94-23.93L93.94-23.93Q95.04-24.63 96.27-25.24 97.5-25.85 98.79-26.29 100.07-26.73 101.36-26.98 102.66-27.22 103.88-27.22L103.88-27.22Q105.41-27.22 106.78-26.78 108.15-26.34 109.16-25.34 110.18-24.34 110.76-22.74 111.35-21.14 111.35-18.85L111.35-18.85Q111.35-18.26 111.32-17.64 111.3-17.02 111.23-16.36L111.23-16.36 110.1-5.91Q109.98-4.88 109.96-4.02 109.93-3.15 109.93-2L109.93-2Q109.93-1.81 109.94-1.67 109.96-1.54 109.96-1.44L109.96-1.44Q109.96-1.22 109.77-1.1 109.59-0.98 108.95-0.78L108.95-0.78ZM128.51 0.37L128.51 0.37Q128.53 0.1 128.62-0.79 128.7-1.68 128.82-3.05 128.95-4.42 129.1-6.19 129.26-7.96 129.46-10 129.65-12.04 129.86-14.26 130.07-16.48 130.29-18.75L130.29-18.75 127.04-18.75Q125.72-18.75 125.14-18.86 124.55-18.97 124.55-19.31L124.55-19.31Q124.55-19.41 124.79-19.84 125.04-20.26 125.42-20.86 125.8-21.46 126.24-22.14 126.67-22.83 127.08-23.43 127.48-24.02 127.77-24.46 128.07-24.9 128.14-25L128.14-25 131.12-25 131.61-28.88Q131.95-31.96 132.84-34.06 133.73-36.16 135.06-37.45 136.39-38.75 138.1-39.31 139.81-39.87 141.76-39.87L141.76-39.87Q143.72-39.87 145.83-39.39 147.94-38.92 150.09-38.09L150.09-38.09Q150.55-37.89 150.78-37.76 151.02-37.62 151.02-37.4L151.02-37.4Q151.02-37.21 150.84-36.89L150.84-36.89Q150.06-35.38 149.68-34.45 149.31-33.52 149.09-32.98 148.87-32.45 148.72-32.26 148.57-32.08 148.28-32.08L148.28-32.08Q148.13-32.08 147.98-32.15 147.82-32.23 147.6-32.32L147.6-32.32Q146.74-32.64 145.88-32.9 145.01-33.15 144.23-33.15L144.23-33.15Q143.13-33.15 142.34-32.47 141.54-31.79 141.08-29.88L141.08-29.88Q140.81-28.78 140.64-27.51 140.47-26.25 140.35-25L140.35-25 146.72-25Q146.91-25 147.1-24.87 147.28-24.73 147.28-24.41L147.28-24.41Q147.28-24.29 146.99-23.54 146.69-22.78 146.16-21.56L146.16-21.56 145.28-19.58Q145.11-19.21 144.92-19.04 144.74-18.87 144.18-18.82L144.18-18.82 139.96-18.82Q139.69-16.28 139.44-13.79 139.2-11.3 138.98-9.12 138.76-6.93 138.59-5.24 138.42-3.54 138.32-2.61L138.32-2.61Q138.3-2.54 138.3-2.34L138.3-2.34Q138.3-2.25 138.31-2.17 138.32-2.1 138.32-2.05L138.32-2.05Q138.32-1.83 138.16-1.7 138-1.56 137.34-1.39L137.34-1.39 130.92 0.88Q130.65 0.98 130.21 1.12 129.78 1.27 129.36 1.27L129.36 1.27Q128.95 1.27 128.73 1.07 128.51 0.88 128.51 0.37ZM162.12-27.25L162.12-27.25Q164.44-27.25 166.33-26.38 168.22-25.51 169.58-24.13 170.93-22.75 171.67-21.04 172.4-19.34 172.4-17.63L172.4-17.63Q172.4-16.11 171.47-14.59 170.54-13.06 168.87-11.84 167.2-10.62 164.86-9.86 162.51-9.11 159.7-9.11L159.7-9.11Q158.24-9.11 156.63-9.4L156.63-9.4Q156.73-8.35 157.24-7.59 157.75-6.84 158.53-6.35 159.31-5.86 160.3-5.63 161.29-5.4 162.34-5.4L162.34-5.4Q163.51-5.4 164.6-5.6 165.69-5.81 166.69-6.15 167.69-6.49 168.62-6.91 169.54-7.32 170.37-7.74L170.37-7.74Q170.59-7.79 170.75-7.82 170.91-7.86 171.06-7.86L171.06-7.86Q171.06-7.86 171.04-7.47 171.03-7.08 171.03-6.37 171.03-5.66 171.02-4.66 171.01-3.66 170.98-2.44L170.98-2.44Q171.06-2.32 171.08-2.2 171.11-2.08 171.11-2L171.11-2Q171.11-1.71 170.57-1.37 170.03-1.03 169.16-0.66 168.3-0.29 167.19 0.05 166.08 0.39 164.93 0.67 163.78 0.95 162.71 1.11 161.63 1.27 160.83 1.27L160.83 1.27Q158.19 1.27 155.71 0.35 153.23-0.56 151.32-2.27 149.4-3.98 148.25-6.42 147.11-8.86 147.11-11.91L147.11-11.91Q147.11-15.11 148.21-17.91 149.3-20.7 151.29-22.78 153.28-24.85 156.04-26.05 158.8-27.25 162.12-27.25ZM161.83-20.75L161.83-20.75Q160.83-20.75 159.99-20.32 159.14-19.9 158.45-19.1 157.75-18.31 157.24-17.2 156.73-16.09 156.41-14.75L156.41-14.75Q158.92-15.19 160.58-15.67 162.24-16.16 163.24-16.66 164.25-17.16 164.66-17.66 165.08-18.16 165.08-18.63L165.08-18.63Q165.08-19.07 164.75-19.46 164.42-19.85 163.93-20.14 163.44-20.43 162.87-20.59 162.29-20.75 161.83-20.75ZM196.93-27.44L195.42-19.87Q194.91-19.92 194.27-19.98 193.64-20.04 192.93-20.04L192.93-20.04Q191.86-20.04 190.74-19.86 189.63-19.68 188.68-19.14 187.73-18.6 187.05-17.66 186.36-16.72 186.17-15.23L186.17-15.23Q186-13.43 185.89-12.27 185.78-11.11 185.73-10.36 185.68-9.62 185.64-9.17 185.61-8.72 185.58-8.33L185.58-8.33Q185.58-8.23 185.54-7.79 185.51-7.35 185.43-6.76 185.36-6.18 185.3-5.49 185.24-4.81 185.17-4.22 185.09-3.64 185.06-3.2 185.02-2.76 185.02-2.66L185.02-2.66Q185.02-2.47 185.03-2.33 185.04-2.2 185.04-2.08L185.04-2.08Q185.04-1.88 184.86-1.75 184.68-1.61 184.04-1.44L184.04-1.44 177.57 0.88Q177.3 0.98 176.86 1.12 176.43 1.27 176.01 1.27L176.01 1.27Q175.67 1.27 175.41 1.1 175.16 0.93 175.16 0.51L175.16 0.51 177.26-23.68Q177.33-24.49 177.44-24.79 177.55-25.1 177.99-25.2L177.99-25.2Q180.21-25.63 182.58-26.09 184.95-26.54 187.17-27.25L187.17-27.25Q187.36-27.25 187.4-27.19 187.44-27.12 187.44-27L187.44-27Q187.44-26.95 187.42-26.86 187.41-26.76 187.35-26.42 187.29-26.07 187.18-25.38 187.07-24.68 186.87-23.44L186.87-23.44Q188-24.32 189.35-25.05 190.71-25.78 192.07-26.31 193.44-26.83 194.71-27.14 195.98-27.44 196.93-27.44L196.93-27.44ZM223.71-0.78L217.78 0.88Q217.51 0.95 217.07 1.11 216.63 1.27 216.22 1.27L216.22 1.27Q215.88 1.27 215.62 1.1 215.36 0.93 215.36 0.51L215.36 0.51 215.36 0.37Q215.51-0.95 215.61-1.87 215.71-2.78 215.79-3.53 215.88-4.27 215.94-5.02 216-5.76 216.1-6.75 216.19-7.74 216.33-9.09 216.46-10.45 216.66-12.48L216.66-12.48Q216.78-13.72 216.88-15.01 216.97-16.31 216.97-17.41L216.97-17.41Q216.97-18.14 216.86-18.76 216.75-19.38 216.47-19.84 216.19-20.29 215.71-20.53 215.22-20.78 214.46-20.78L214.46-20.78Q213.9-20.78 212.91-20.53 211.92-20.29 210.94-19.73 209.97-19.17 209.21-18.25 208.45-17.33 208.36-15.99L208.36-15.99Q208.21-14.18 208.09-12.9 207.97-11.62 207.87-10.73 207.77-9.84 207.71-9.28 207.65-8.72 207.62-8.33L207.62-8.33Q207.6-8.23 207.55-7.79 207.5-7.35 207.44-6.74 207.38-6.13 207.32-5.44 207.26-4.76 207.2-4.15 207.14-3.54 207.1-3.1 207.06-2.66 207.06-2.56L207.06-2.56Q207.06-2.37 207.07-2.23 207.09-2.1 207.09-1.98L207.09-1.98Q207.09-1.78 206.9-1.65 206.72-1.51 206.09-1.34L206.09-1.34 199.62 0.88Q199.35 0.98 198.91 1.12 198.47 1.27 198.05 1.27L198.05 1.27Q197.71 1.27 197.46 1.1 197.2 0.93 197.2 0.51L197.2 0.51 199.42-24.44Q199.49-25.24 199.6-25.55 199.71-25.85 200.15-25.95L200.15-25.95Q202.38-26.39 204.72-26.84 207.06-27.29 209.28-28L209.28-28Q209.48-28 209.52-27.94 209.55-27.88 209.55-27.76L209.55-27.76Q209.55-27.71 209.54-27.61 209.53-27.51 209.47-27.17 209.41-26.83 209.3-26.14 209.19-25.44 208.99-24.19L208.99-24.19Q210.68-25.17 212.15-25.77 213.63-26.37 214.94-26.7 216.24-27.03 217.39-27.14 218.54-27.25 219.54-27.25L219.54-27.25Q222.98-27.25 224.54-25.16 226.11-23.07 226.11-18.9L226.11-18.9Q226.11-18.31 226.08-17.69 226.06-17.07 225.98-16.41L225.98-16.41 224.86-5.91Q224.74-4.88 224.71-4.02 224.69-3.15 224.69-2L224.69-2Q224.69-1.81 224.7-1.67 224.71-1.54 224.71-1.44L224.71-1.44Q224.71-1.22 224.53-1.1 224.35-0.98 223.71-0.78L223.71-0.78ZM257.23-27.66L254.72-4.91Q254.69-4.81 254.69-4.72 254.69-4.64 254.69-4.57L254.69-4.57Q254.69-3.96 254.89-3.55 255.08-3.15 255.31-2.89 255.55-2.64 255.74-2.48 255.94-2.32 255.94-2.2L255.94-2.2Q255.94-1.86 255.2-1.56L255.2-1.56 248.64 1.25Q248.61 1.27 248.47 1.27L248.47 1.27Q248.27 1.27 248.08 0.93 247.88 0.59 247.7 0.06 247.51-0.46 247.36-1.06 247.2-1.66 247.07-2.17L247.07-2.17Q245.54-0.39 243.75 0.44 241.97 1.27 240.21 1.27L240.21 1.27Q238.16 1.27 236.21 0.37 234.26-0.54 232.74-2.21 231.23-3.88 230.31-6.25 229.4-8.62 229.4-11.57L229.4-11.57Q229.4-15.06 230.41-17.94 231.43-20.83 233.16-22.9 234.89-24.98 237.2-26.11 239.51-27.25 242.09-27.25L242.09-27.25Q243.93-27.25 245.56-26.5 247.2-25.76 248.66-24.58L248.66-24.58Q248.81-25.32 248.83-25.76 248.86-26.2 248.94-26.44 249.03-26.68 249.27-26.77 249.52-26.86 250.08-26.9L250.08-26.9Q251.84-27.15 253.58-27.36 255.33-27.56 257.23-27.66L257.23-27.66ZM246.39-6.88L247.42-14.11Q247.66-15.5 247.75-16.74 247.83-17.97 247.88-18.99L247.88-18.99Q247.49-19.29 247.04-19.6 246.59-19.92 246.06-20.2 245.54-20.48 244.96-20.65 244.39-20.83 243.75-20.83L243.75-20.83Q242.44-20.83 241.54-19.97 240.65-19.12 240.1-17.87 239.56-16.63 239.32-15.23 239.09-13.84 239.09-12.77L239.09-12.77Q239.09-8.91 240.1-7.12 241.12-5.32 242.92-5.32L242.92-5.32Q243.66-5.32 244.56-5.74 245.46-6.15 246.39-6.88L246.39-6.88ZM286.45-0.78L280.52 0.88Q280.25 0.95 279.81 1.11 279.37 1.27 278.96 1.27L278.96 1.27Q278.62 1.27 278.36 1.1 278.1 0.93 278.1 0.51L278.1 0.51 278.1 0.37Q278.25-0.95 278.35-1.87 278.44-2.78 278.53-3.53 278.62-4.27 278.68-5.02 278.74-5.76 278.83-6.75 278.93-7.74 279.07-9.09 279.2-10.45 279.4-12.48L279.4-12.48Q279.52-13.72 279.62-15.01 279.71-16.31 279.71-17.41L279.71-17.41Q279.71-18.14 279.6-18.76 279.49-19.38 279.21-19.84 278.93-20.29 278.44-20.53 277.96-20.78 277.2-20.78L277.2-20.78Q276.64-20.78 275.65-20.53 274.66-20.29 273.68-19.73 272.71-19.17 271.95-18.25 271.19-17.33 271.1-15.99L271.1-15.99Q270.95-14.18 270.83-12.9 270.71-11.62 270.61-10.73 270.51-9.84 270.45-9.28 270.39-8.72 270.36-8.33L270.36-8.33Q270.34-8.23 270.29-7.79 270.24-7.35 270.18-6.74 270.12-6.13 270.06-5.44 270-4.76 269.94-4.15 269.87-3.54 269.84-3.1 269.8-2.66 269.8-2.56L269.8-2.56Q269.8-2.37 269.81-2.23 269.83-2.1 269.83-1.98L269.83-1.98Q269.83-1.78 269.64-1.65 269.46-1.51 268.83-1.34L268.83-1.34 262.36 0.88Q262.09 0.98 261.65 1.12 261.21 1.27 260.79 1.27L260.79 1.27Q260.45 1.27 260.19 1.1 259.94 0.93 259.94 0.51L259.94 0.51 262.16-24.44Q262.23-25.24 262.34-25.55 262.45-25.85 262.89-25.95L262.89-25.95Q265.11-26.39 267.46-26.84 269.8-27.29 272.02-28L272.02-28Q272.22-28 272.26-27.94 272.29-27.88 272.29-27.76L272.29-27.76Q272.29-27.71 272.28-27.61 272.27-27.51 272.21-27.17 272.15-26.83 272.04-26.14 271.93-25.44 271.73-24.19L271.73-24.19Q273.42-25.17 274.89-25.77 276.37-26.37 277.68-26.7 278.98-27.03 280.13-27.14 281.28-27.25 282.28-27.25L282.28-27.25Q285.72-27.25 287.28-25.16 288.84-23.07 288.84-18.9L288.84-18.9Q288.84-18.31 288.82-17.69 288.8-17.07 288.72-16.41L288.72-16.41 287.6-5.91Q287.48-4.88 287.45-4.02 287.43-3.15 287.43-2L287.43-2Q287.43-1.81 287.44-1.67 287.45-1.54 287.45-1.44L287.45-1.44Q287.45-1.22 287.27-1.1 287.09-0.98 286.45-0.78L286.45-0.78ZM310.5-8.33L311.01-13.89Q311.08-14.67 311.17-15.53 311.25-16.38 311.38-17.31L311.38-17.31Q310.81-18.77 309.79-19.69 308.76-20.61 307.23-20.61L307.23-20.61Q305.71-20.61 304.66-19.74 303.61-18.87 302.98-17.6 302.34-16.33 302.06-14.93 301.78-13.53 301.78-12.45L301.78-12.45Q301.78-11.13 301.94-9.84 302.1-8.54 302.45-7.5 302.81-6.45 303.39-5.8 303.98-5.15 304.86-5.15L304.86-5.15Q307.01-5.22 308.35-6.13 309.69-7.03 310.5-8.33L310.5-8.33ZM322.68-36.84L319.53-2.47Q319.53-2.42 319.52-2.36 319.51-2.29 319.51-2.25L319.51-2.25Q319.51-2.12 319.52-2.05 319.53-1.98 319.53-1.9L319.53-1.9Q319.53-1.68 319.37-1.55 319.21-1.42 318.55-1.25L318.55-1.25 312.01 0.88Q311.74 0.98 311.3 1.12 310.86 1.27 310.45 1.27L310.45 1.27Q310.11 1.27 309.85 1.1 309.59 0.93 309.59 0.46L309.59 0.46Q309.59 0.02 309.61-0.24 309.62-0.51 309.63-0.74 309.64-0.98 309.68-1.25 309.72-1.51 309.77-1.95L309.77-1.95Q307.93-0.49 305.99 0.39 304.05 1.27 301.9 1.27L301.9 1.27Q299.56 1.27 297.74 0.16 295.92-0.95 294.68-2.82 293.43-4.69 292.79-7.09 292.14-9.5 292.14-12.11L292.14-12.11Q292.14-15.5 293.25-18.3 294.36-21.09 296.26-23.08 298.17-25.07 300.71-26.16 303.25-27.25 306.1-27.25L306.1-27.25Q307.64-27.25 309.04-26.44 310.45-25.63 311.69-24.37L311.69-24.37Q311.77-25.56 311.86-26.97 311.96-28.37 312.06-29.82 312.16-31.27 312.26-32.69 312.35-34.11 312.43-35.28L312.43-35.28Q312.43-35.5 312.58-35.63 312.74-35.77 313.4-35.94L313.4-35.94 320.26-37.57Q320.53-37.62 320.97-37.79 321.41-37.96 321.83-37.96L321.83-37.96Q322.14-37.96 322.42-37.82 322.7-37.67 322.7-37.26L322.7-37.26Q322.7-37.21 322.69-37.05 322.68-36.89 322.68-36.84L322.68-36.84ZM338.4 1.27L338.4 1.27Q334.96 1.27 332.36 0.15 329.76-0.98 328-2.84 326.24-4.71 325.36-7.14 324.48-9.57 324.48-12.18L324.48-12.18Q324.48-14.79 325.34-17.15 326.19-19.51 327.73-21.37 329.27-23.24 331.42-24.5 333.57-25.76 336.15-26.2L336.15-26.2Q336.54-26.22 336.54-26.37L336.54-26.37Q336.54-26.64 336.48-26.87 336.42-27.1 336.42-27.27L336.42-27.27Q336.42-27.54 336.52-27.64 336.62-27.73 336.74-27.73L336.74-27.73Q341.4-27.73 344.67-26.67 347.95-25.61 350-23.78 352.05-21.95 352.98-19.46 353.9-16.97 353.9-14.11L353.9-14.11Q353.9-10.47 352.68-7.62 351.46-4.76 349.35-2.78 347.24-0.81 344.42 0.23 341.6 1.27 338.4 1.27ZM333.88-12.45L333.88-12.45Q333.88-11.13 334.16-9.84 334.45-8.54 335.09-7.5 335.74-6.45 336.79-5.8 337.84-5.15 339.4-5.15L339.4-5.15Q340.52-5.2 341.37-5.65 342.21-6.1 342.82-6.82 343.43-7.54 343.83-8.45 344.24-9.35 344.47-10.31 344.7-11.28 344.8-12.21 344.89-13.13 344.89-13.89L344.89-13.89Q344.89-15.16 344.52-16.38 344.14-17.6 343.41-18.53 342.67-19.46 341.59-20.03 340.5-20.61 339.08-20.61L339.08-20.61Q337.62-20.61 336.62-19.74 335.62-18.87 335.02-17.6 334.42-16.33 334.15-14.93 333.88-13.53 333.88-12.45Z" opacity="1" transform="matrix(1,0,0,1,0,0)" fill="#ffffff" class="wordmark-text-0" data-fill-palette-color="primary" id="text-0"></path></svg></g></svg></g></svg></g></svg></g></svg></g></svg></g></svg></g><g><path d="M245.816 0c68.262 0 123.6 55.338 123.6 123.6 0 68.262-55.338 123.6-123.6 123.6-62.258 0-113.764-46.03-122.345-105.914l1.304 0c8.57 59.169 59.497 104.624 121.041 104.624 67.55 0 122.31-54.76 122.309-122.31 0-67.55-54.76-122.31-122.309-122.31-61.544 0-112.471 45.455-121.041 104.624h-1.304c8.58-59.884 60.087-105.914 122.345-105.914z" fill="#ffffff" stroke="transparent" data-fill-palette-color="tertiary"></path></g></svg></g><defs></defs></svg><rect width="395.52" height="247.2" fill="none" stroke="none" visibility="hidden"></rect></g></svg></g></svg>