<svg xmlns="http://www.w3.org/2000/svg" version="1.1" xmlns:xlink="http://www.w3.org/1999/xlink" xmlns:svgjs="http://svgjs.dev/svgjs" width="128" height="128" viewBox="0 0 128 128"><g transform="matrix(0.8046875,0,0,0.8046875,12.333870967741937,12.333870967741937)"><svg viewBox="0 0 155 155" data-background-color="#c8c8c8" preserveAspectRatio="xMidYMid meet" height="128" width="128" xmlns="http://www.w3.org/2000/svg" xmlns:xlink="http://www.w3.org/1999/xlink"><g id="tight-bounds" transform="matrix(1,0,0,1,0.25,0.25)"><svg viewBox="0 0 154.5 154.5" height="154.5" width="154.5"><g><svg></svg></g><g><svg viewBox="0 0 154.5 154.5" height="154.5" width="154.5"><g transform="matrix(1,0,0,1,47.746370999999996,56.35314633669609)"><svg viewBox="0 0 59.007258 41.793707326607816" height="41.793707326607816" width="59.007258"><g><svg viewBox="0 0 59.007258 41.793707326607816" height="41.793707326607816" width="59.007258"><g><svg viewBox="0 0 59.007258 41.793707326607816" height="41.793707326607816" width="59.007258"><g id="textblocktransform"><svg viewBox="0 0 59.007258 41.793707326607816" height="41.793707326607816" width="59.007258" id="textblock"><g><svg viewBox="0 0 59.007258 41.793707326607816" height="41.793707326607816" width="59.007258"><g transform="matrix(1,0,0,1,0,0)"><svg width="59.007258" viewBox="2.54 -39.87 58.08 41.14" height="41.793707326607816" data-palette-color="#000000"><path d="M20.9-8.33L21.41-13.89Q21.48-14.67 21.57-15.53 21.66-16.38 21.78-17.31L21.78-17.31Q21.22-18.77 20.19-19.69 19.17-20.61 17.63-20.61L17.63-20.61Q16.11-20.61 15.06-19.74 14.01-18.87 13.38-17.6 12.74-16.33 12.46-14.93 12.18-13.53 12.18-12.45L12.18-12.45Q12.18-11.13 12.34-9.84 12.5-8.54 12.85-7.5 13.21-6.45 13.79-5.8 14.38-5.15 15.26-5.15L15.26-5.15Q17.41-5.22 18.75-6.13 20.09-7.03 20.9-8.33L20.9-8.33ZM33.08-36.84L29.93-2.47Q29.93-2.42 29.92-2.36 29.91-2.29 29.91-2.25L29.91-2.25Q29.91-2.12 29.92-2.05 29.93-1.98 29.93-1.9L29.93-1.9Q29.93-1.68 29.77-1.55 29.61-1.42 28.96-1.25L28.96-1.25 22.41 0.88Q22.14 0.98 21.7 1.12 21.26 1.27 20.85 1.27L20.85 1.27Q20.51 1.27 20.25 1.1 20 0.93 20 0.46L20 0.46Q20 0.02 20.01-0.24 20.02-0.51 20.03-0.74 20.04-0.98 20.08-1.25 20.12-1.51 20.17-1.95L20.17-1.95Q18.33-0.49 16.39 0.39 14.45 1.27 12.3 1.27L12.3 1.27Q9.96 1.27 8.14 0.16 6.32-0.95 5.08-2.82 3.83-4.69 3.19-7.09 2.54-9.5 2.54-12.11L2.54-12.11Q2.54-15.5 3.65-18.3 4.76-21.09 6.67-23.08 8.57-25.07 11.11-26.16 13.65-27.25 16.5-27.25L16.5-27.25Q18.04-27.25 19.45-26.44 20.85-25.63 22.09-24.37L22.09-24.37Q22.17-25.56 22.27-26.97 22.36-28.37 22.46-29.82 22.56-31.27 22.66-32.69 22.75-34.11 22.83-35.28L22.83-35.28Q22.83-35.5 22.99-35.63 23.14-35.77 23.8-35.94L23.8-35.94 30.66-37.57Q30.93-37.62 31.37-37.79 31.81-37.96 32.23-37.96L32.23-37.96Q32.54-37.96 32.82-37.82 33.11-37.67 33.11-37.26L33.11-37.26Q33.11-37.21 33.09-37.05 33.08-36.89 33.08-36.84L33.08-36.84ZM38.11 0.37L38.11 0.37Q38.13 0.1 38.22-0.79 38.3-1.68 38.43-3.05 38.55-4.42 38.71-6.19 38.86-7.96 39.06-10 39.26-12.04 39.46-14.26 39.67-16.48 39.89-18.75L39.89-18.75 36.64-18.75Q35.32-18.75 34.74-18.86 34.15-18.97 34.15-19.31L34.15-19.31Q34.15-19.41 34.4-19.84 34.64-20.26 35.02-20.86 35.4-21.46 35.84-22.14 36.28-22.83 36.68-23.43 37.08-24.02 37.38-24.46 37.67-24.9 37.74-25L37.74-25 40.72-25 41.21-28.88Q41.55-31.96 42.44-34.06 43.33-36.16 44.66-37.45 45.99-38.75 47.7-39.31 49.41-39.87 51.36-39.87L51.36-39.87Q53.32-39.87 55.43-39.39 57.54-38.92 59.69-38.09L59.69-38.09Q60.15-37.89 60.39-37.76 60.62-37.62 60.62-37.4L60.62-37.4Q60.62-37.21 60.45-36.89L60.45-36.89Q59.67-35.38 59.29-34.45 58.91-33.52 58.69-32.98 58.47-32.45 58.32-32.26 58.18-32.08 57.88-32.08L57.88-32.08Q57.74-32.08 57.58-32.15 57.42-32.23 57.2-32.32L57.2-32.32Q56.35-32.64 55.48-32.9 54.61-33.15 53.83-33.15L53.83-33.15Q52.73-33.15 51.94-32.47 51.14-31.79 50.68-29.88L50.68-29.88Q50.41-28.78 50.24-27.51 50.07-26.25 49.95-25L49.95-25 56.32-25Q56.52-25 56.7-24.87 56.88-24.73 56.88-24.41L56.88-24.41Q56.88-24.29 56.59-23.54 56.3-22.78 55.76-21.56L55.76-21.56 54.88-19.58Q54.71-19.21 54.53-19.04 54.34-18.87 53.78-18.82L53.78-18.82 49.56-18.82Q49.29-16.28 49.05-13.79 48.8-11.3 48.58-9.12 48.36-6.93 48.19-5.24 48.02-3.54 47.92-2.61L47.92-2.61Q47.9-2.54 47.9-2.34L47.9-2.34Q47.9-2.25 47.91-2.17 47.92-2.1 47.92-2.05L47.92-2.05Q47.92-1.83 47.76-1.7 47.6-1.56 46.95-1.39L46.95-1.39 40.52 0.88Q40.26 0.98 39.82 1.12 39.38 1.27 38.96 1.27L38.96 1.27Q38.55 1.27 38.33 1.07 38.11 0.88 38.11 0.37Z" opacity="1" transform="matrix(1,0,0,1,0,0)" fill="#ffffff" class="wordmark-text-0" data-fill-palette-color="primary" id="text-0"></path></svg></g></svg></g></svg></g></svg></g></svg></g></svg></g><g><path d="M68.537 46.487A29.504 29.504 0 0 1 85.963 46.487L82.194 46.487A25.735 25.735 0 0 0 72.306 46.487L68.537 46.487M68.537 108.013A29.504 29.504 0 0 0 85.963 108.013L82.194 108.013A25.735 25.735 0 0 1 72.306 108.013L68.537 108.013" fill="#ffffff" stroke="transparent" data-fill-palette-color="tertiary"></path></g></svg></g><defs></defs></svg><rect width="154.5" height="154.5" fill="none" stroke="none" visibility="hidden"></rect></g></svg></g></svg>